# xmcd
#
# Track frame offsets:
#       150
#       15985
#       22232
#       33347
#       38310
#       52530
#       60920
#       71632
#       85427
#       91682
#       102927
#       116957
#       126442
#       132727
#       141395
#
# Disc length: 1979 seconds
#
# Revision: 1
# Processed by: cddbd v1.5.1PL0 Copyright (c) Steve Scherf et al.
# Submitted via: MusiCat 1.1
#
DISCID=c707b90f
DTITLE=Canto gregoriano - Liturgia do natal
DYEAR=1900
DGENRE=
TTITLE0=Adeste fideles
TTITLE1=Saudação à santa mãe de deus
TTITLE2=Noite Feliz
TTITLE3=Antífona para magnificat do natal
TTITLE4=Salmo de vigílias
TTITLE5=Kyrie VIII
TTITLE6=Salmo responsorial
TTITLE7=Glória VIII
TTITLE8=Antífona de natal
TTITLE9=Hino de vésperas
TTITLE10=Canto de entrada da missa de natal
TTITLE11=Canto para a benção do santíssimo
TTITLE12=Saudçãop à santa mãe de deus
TTITLE13=Adeste fideles
TTITLE14=Noite feliz
EXTD=\n\n
EXTT0=
EXTT1=
EXTT2=
EXTT3=
EXTT4=
EXTT5=
EXTT6=
EXTT7=
EXTT8=
EXTT9=
EXTT10=
EXTT11=
EXTT12=
EXTT13=
EXTT14=
PLAYORDER=
